<mxfile host="app.diagrams.net" modified="2023-06-04T18:30:55.547Z" agent="Mozilla/5.0 (Windows NT 10.0; Win64; x64) AppleWebKit/537.36 (KHTML, like Gecko) Chrome/114.0.0.0 Safari/537.36" etag="be2ZADQ02CC_jUSftdZy" version="21.3.7" type="device">
  <diagram name="PÃ¡gina-1" id="fRxYpWFWI3TABBfFrbz9">
    <mxGraphModel dx="1434" dy="796" grid="1" gridSize="10" guides="1" tooltips="1" connect="1" arrows="1" fold="1" page="1" pageScale="1" pageWidth="827" pageHeight="1169" math="1" shadow="0">
      <root>
        <mxCell id="0" />
        <mxCell id="1" parent="0" />
        <mxCell id="B_Le31ezV2yMH2FOFBGa-6" value="$$\varphi_A$$" style="shape=trapezoid;perimeter=trapezoidPerimeter;whiteSpace=wrap;html=1;fixedSize=1;fillColor=#d5e8d4;strokeColor=#82b366;size=20;" parent="1" vertex="1">
          <mxGeometry x="130" y="380" width="120" height="60" as="geometry" />
        </mxCell>
        <mxCell id="B_Le31ezV2yMH2FOFBGa-7" value="$$\gamma_A$$" style="shape=trapezoid;perimeter=trapezoidPerimeter;whiteSpace=wrap;html=1;fixedSize=1;fillColor=#d5e8d4;strokeColor=#82b366;size=-10;" parent="1" vertex="1">
          <mxGeometry x="150" y="240" width="80" height="30" as="geometry" />
        </mxCell>
        <mxCell id="B_Le31ezV2yMH2FOFBGa-11" value="$$\hat{T}_{rel}(\mathcal{A})$$" style="rounded=1;whiteSpace=wrap;html=1;dashed=1;fillColor=#ffe6cc;strokeColor=#d79b00;" parent="1" vertex="1">
          <mxGeometry x="150" y="280" width="80" height="30" as="geometry" />
        </mxCell>
        <mxCell id="B_Le31ezV2yMH2FOFBGa-12" value="Train set A" style="shape=cylinder3;whiteSpace=wrap;html=1;boundedLbl=1;backgroundOutline=1;size=15;fillColor=#ffffff;strokeColor=#82b366;" parent="1" vertex="1">
          <mxGeometry x="130" y="450" width="120" height="60" as="geometry" />
        </mxCell>
        <mxCell id="B_Le31ezV2yMH2FOFBGa-13" value="Task&lt;br&gt;Loss A" style="ellipse;whiteSpace=wrap;html=1;aspect=fixed;fillColor=#FFFFFF;strokeColor=#82b366;" parent="1" vertex="1">
          <mxGeometry x="165" y="180" width="50" height="50" as="geometry" />
        </mxCell>
        <mxCell id="B_Le31ezV2yMH2FOFBGa-22" value="Gradient" style="endArrow=classic;html=1;rounded=0;strokeColor=#FF0000;" parent="1" edge="1">
          <mxGeometry width="50" height="50" relative="1" as="geometry">
            <mxPoint x="117" y="230" as="sourcePoint" />
            <mxPoint x="117" y="440" as="targetPoint" />
          </mxGeometry>
        </mxCell>
        <mxCell id="OQAexkaJsbmmNymDWaih-5" value="" style="endArrow=classic;html=1;exitX=0.5;exitY=0;exitDx=0;exitDy=0;curved=1;" parent="1" source="B_Le31ezV2yMH2FOFBGa-6" edge="1">
          <mxGeometry width="50" height="50" relative="1" as="geometry">
            <mxPoint x="390" y="430" as="sourcePoint" />
            <mxPoint x="270" y="340" as="targetPoint" />
            <Array as="points">
              <mxPoint x="210" y="340" />
            </Array>
          </mxGeometry>
        </mxCell>
        <mxCell id="OQAexkaJsbmmNymDWaih-6" value="" style="endArrow=classic;html=1;rounded=0;entryX=0.5;entryY=1;entryDx=0;entryDy=0;entryPerimeter=0;" parent="1" target="B_Le31ezV2yMH2FOFBGa-11" edge="1">
          <mxGeometry width="50" height="50" relative="1" as="geometry">
            <mxPoint x="190" y="380" as="sourcePoint" />
            <mxPoint x="190" y="320" as="targetPoint" />
          </mxGeometry>
        </mxCell>
        <mxCell id="OQAexkaJsbmmNymDWaih-8" value="" style="endArrow=classic;html=1;exitX=0.65;exitY=-0.033;exitDx=0;exitDy=0;curved=1;exitPerimeter=0;fillColor=#f8cecc;strokeColor=#FF0000;entryX=0.667;entryY=0;entryDx=0;entryDy=0;entryPerimeter=0;" parent="1" target="B_Le31ezV2yMH2FOFBGa-6" edge="1">
          <mxGeometry width="50" height="50" relative="1" as="geometry">
            <mxPoint x="270" y="350" as="sourcePoint" />
            <mxPoint x="210" y="370" as="targetPoint" />
            <Array as="points">
              <mxPoint x="220" y="350" />
            </Array>
          </mxGeometry>
        </mxCell>
        <mxCell id="OQAexkaJsbmmNymDWaih-9" value="&lt;p style=&quot;line-height: 0%;&quot;&gt;&lt;font style=&quot;font-size: 12px;&quot;&gt;Topo loss&lt;/font&gt;&lt;/p&gt;$$L^2$$" style="ellipse;fontSize=12;align=center;whiteSpace=wrap;html=1;verticalAlign=top;labelPosition=center;verticalLabelPosition=middle;spacingTop=-3;fillColor=default;strokeColor=#82b366;" parent="1" vertex="1">
          <mxGeometry x="280" y="320" width="120" height="50" as="geometry" />
        </mxCell>
      </root>
    </mxGraphModel>
  </diagram>
</mxfile>
